HIERARCHY
ROOT Hips
{
	OFFSET 0.000000 89.005402 0.000000
	CHANNELS 6 Xposition Yposition Zposition Xrotation Yrotation Zrotation
	JOINT Spine
	{
		OFFSET 0.116900 10.681000 0.373400
		CHANNELS 3 Xrotation Yrotation Zrotation
		JOINT Spine1
		{
			OFFSET 0.000000 13.840401 0.053500
			CHANNELS 3 Xrotation Yrotation Zrotation
			JOINT Spine2
			{
				OFFSET 0.000000 14.712700 -0.366200
				CHANNELS 3 Xrotation Yrotation Zrotation
				JOINT Neck
				{
					OFFSET 0.000000 35.415497 -3.314200
					CHANNELS 3 Xrotation Yrotation Zrotation
					JOINT Head
					{
						OFFSET 0.000000 16.899200 1.218300
						CHANNELS 3 Xrotation Yrotation Zrotation
						JOINT HeadTop_End
						{
							OFFSET 0.000000 22.206207 2.192500
							CHANNELS 3 Xrotation Yrotation Zrotation
							End Site
							{
								OFFSET 0.000000 22.314178 0.000000
							}
						}
					}
				}
				JOINT LeftShoulder
				{
					OFFSET 12.896400 26.716293 -4.548400
					CHANNELS 3 Xrotation Yrotation Zrotation
					JOINT LeftArm
					{
						OFFSET 19.027000 -4.857010 -1.718400
						CHANNELS 3 Xrotation Yrotation Zrotation
						JOINT LeftForeArm
						{
							OFFSET 24.179897 0.000000 0.000000
							CHANNELS 3 Xrotation Yrotation Zrotation
							JOINT LeftHand
							{
								OFFSET 27.156403 0.000000 0.000000
								CHANNELS 3 Xrotation Yrotation Zrotation
								JOINT LeftHandIndex1
								{
									OFFSET 16.441200 0.000000 0.000000
									CHANNELS 3 Xrotation Yrotation Zrotation
									JOINT LeftHandIndex2
									{
										OFFSET 4.821899 0.000000 0.000000
										CHANNELS 3 Xrotation Yrotation Zrotation
										JOINT LeftHandIndex3
										{
											OFFSET 6.386497 0.000000 0.000000
											CHANNELS 3 Xrotation Yrotation Zrotation
											JOINT LeftHandIndex4
											{
												OFFSET 5.188988 0.000000 0.000000
												CHANNELS 3 Xrotation Yrotation Zrotation
												End Site
												{
													OFFSET -0.178703 5.185913 0.000177
												}
											}
										}
									}
								}
								JOINT LeftHandThumb1
								{
									OFFSET 6.534897 -5.032593 5.900300
									CHANNELS 3 Xrotation Yrotation Zrotation
									JOINT LeftHandThumb2
									{
										OFFSET 3.818176 -2.204422 2.204423
										CHANNELS 3 Xrotation Yrotation Zrotation
										JOINT LeftHandThumb3
										{
											OFFSET 3.252098 -1.877594 1.877601
											CHANNELS 3 Xrotation Yrotation Zrotation
											JOINT LeftHandThumb4
											{
												OFFSET 5.251778 -3.032120 3.032117
												CHANNELS 3 Xrotation Yrotation Zrotation
												End Site
												{
													OFFSET 0.000023 6.780014 0.000000
												}
											}
										}
									}
								}
							}
						}
					}
				}
				JOINT RightShoulder
				{
					OFFSET -12.896300 26.716293 -4.548400
					CHANNELS 3 Xrotation Yrotation Zrotation
					JOINT RightArm
					{
						OFFSET -19.027000 -4.857010 -1.718400
						CHANNELS 3 Xrotation Yrotation Zrotation
						JOINT RightForeArm
						{
							OFFSET -24.179897 0.000000 0.000000
							CHANNELS 3 Xrotation Yrotation Zrotation
							JOINT RightHand
							{
								OFFSET -27.156403 0.000000 0.000000
								CHANNELS 3 Xrotation Yrotation Zrotation
								JOINT RightHandThumb1
								{
									OFFSET -6.591202 -4.852203 5.988100
									CHANNELS 3 Xrotation Yrotation Zrotation
									JOINT RightHandThumb2
									{
										OFFSET -3.818176 -2.204422 2.204423
										CHANNELS 3 Xrotation Yrotation Zrotation
										JOINT RightHandThumb3
										{
											OFFSET -3.252098 -1.877594 1.877601
											CHANNELS 3 Xrotation Yrotation Zrotation
											JOINT RightHandThumb4
											{
												OFFSET -5.251778 -3.032120 3.032117
												CHANNELS 3 Xrotation Yrotation Zrotation
												End Site
												{
													OFFSET -0.000023 6.780014 0.000000
												}
											}
										}
									}
								}
								JOINT RightHandIndex1
								{
									OFFSET -16.029404 0.000000 0.000000
									CHANNELS 3 Xrotation Yrotation Zrotation
									JOINT RightHandIndex2
									{
										OFFSET -5.213303 0.000000 0.000000
										CHANNELS 3 Xrotation Yrotation Zrotation
										JOINT RightHandIndex3
										{
											OFFSET -6.386528 0.000000 0.000000
											CHANNELS 3 Xrotation Yrotation Zrotation
											JOINT RightHandIndex4
											{
												OFFSET -5.189026 0.000000 0.000000
												CHANNELS 3 Xrotation Yrotation Zrotation
												End Site
												{
													OFFSET 0.236702 5.183624 0.001972
												}
											}
										}
									}
								}
							}
						}
					}
				}
			}
		}
	}
	JOINT LeftUpLeg
	{
		OFFSET 14.073000 -7.904099 -1.463000
		CHANNELS 3 Xrotation Yrotation Zrotation
		JOINT LeftLeg
		{
			OFFSET -0.109806 -34.073280 4.093200
			CHANNELS 3 Xrotation Yrotation Zrotation
			JOINT LeftFoot
			{
				OFFSET 0.109806 -29.899420 -6.319000
				CHANNELS 3 Xrotation Yrotation Zrotation
				JOINT LeftToeBase
				{
					OFFSET 1.551100 -14.988700 20.535801
					CHANNELS 3 Xrotation Yrotation Zrotation
					JOINT LeftToe_End
					{
						OFFSET 0.221200 0.570800 13.248301
						CHANNELS 3 Xrotation Yrotation Zrotation
						End Site
						{
							OFFSET 0.000000 13.262435 0.000000
						}
					}
				}
			}
		}
	}
	JOINT RightUpLeg
	{
		OFFSET -13.839300 -7.904099 -1.463000
		CHANNELS 3 Xrotation Yrotation Zrotation
		JOINT RightLeg
		{
			OFFSET 0.109694 -34.073219 4.093300
			CHANNELS 3 Xrotation Yrotation Zrotation
			JOINT RightFoot
			{
				OFFSET -0.109694 -29.899384 -6.319200
				CHANNELS 3 Xrotation Yrotation Zrotation
				JOINT RightToeBase
				{
					OFFSET -1.551100 -14.988700 20.535801
					CHANNELS 3 Xrotation Yrotation Zrotation
					JOINT RightToe_End
					{
						OFFSET -0.221200 0.570900 13.248299
						CHANNELS 3 Xrotation Yrotation Zrotation
						End Site
						{
							OFFSET 0.000000 13.262440 0.000000
						}
					}
				}
			}
		}
	}
}
MOTION
Frames: 7
Frame Time: 0.033333
1.376597 77.058334 2.133463 11.847714 -19.820152 0.080548 2.316858 -0.592239 1.569522 7.549563 -1.296543 1.216943 7.557075 -1.167717 1.302152 -6.033892 3.173516 -1.743651 -22.232768 14.319689 -1.138294 0.000000 0.000000 0.000000 0.580949 4.544503 -10.665417 -5.449502 -20.372122 -54.475065 0.000700 -84.316848 0.000754 21.289338 1.540848 28.302460 -11.214699 -7.851937 -13.475846 0.126571 2.748772 -20.406561 1.630031 4.971277 -40.072129 0.000000 0.000000 -0.000000 0.626555 5.419144 2.939357 4.330097 -0.661770 -3.639586 7.567949 41.114798 -0.574121 -0.000000 0.000002 -0.000000 1.815463 4.101161 11.626131 -17.788254 17.843775 64.729286 0.001767 86.957030 -0.001857 27.453295 7.982048 1.803704 -7.743932 22.753127 -16.040353 6.934119 -44.978821 -9.137368 -12.903911 21.733611 7.991438 0.000001 -0.000000 -0.000001 0.371979 -3.723764 -20.941328 1.864488 -5.469511 44.606237 -0.103860 -1.103892 8.178445 0.000004 -0.000000 -0.000003 -44.788918 6.663970 28.054162 49.489741 6.678180 0.725304 -12.018116 3.752675 -20.445382 -1.103480 -0.000004 0.000007 0.000000 0.000000 -0.000000 -35.212026 -10.398534 -21.004927 42.373083 -6.011953 -0.598122 -11.887563 -3.979645 20.451241 -0.494675 -0.005054 0.585231 -0.000000 0.000002 0.000000 
1.396739 77.025024 2.167055 11.871227 -19.832219 0.071306 2.338200 -0.557343 1.558007 7.580303 -1.228315 1.166555 7.587744 -1.102110 1.245245 -6.055676 3.169571 -1.712452 -22.179590 14.342991 -1.179485 -0.000000 -0.000001 -0.000000 0.581875 4.520127 -10.637209 -5.587398 -20.431531 -54.470168 -0.000024 -84.314977 0.000006 21.336338 1.591262 28.218373 -11.214701 -7.851939 -13.475846 0.126570 2.748772 -20.406565 1.630028 4.971276 -40.072122 0.000001 0.000000 -0.000000 0.626551 5.419143 2.939356 4.330093 -0.661769 -3.639586 7.567949 41.114802 -0.574124 0.000001 0.000004 -0.000001 1.823481 4.106727 11.682991 -17.782734 17.699503 64.693031 0.003450 87.191470 -0.003504 27.437650 7.918078 1.819574 -7.743928 22.753127 -16.040354 6.934121 -44.978817 -9.137372 -12.903920 21.733612 7.991435 -0.000002 -0.000000 -0.000000 0.371978 -3.723767 -20.941331 1.864485 -5.469508 44.606241 -0.103863 -1.103890 8.178446 0.000003 0.000000 0.000001 -44.843682 6.580720 28.000106 49.631669 6.749861 0.785234 -12.047620 3.748809 -20.393695 -1.153178 -0.000002 0.000001 -0.000000 0.000000 -0.000000 -35.193263 -10.375432 -21.005748 42.338143 -6.132715 -0.615374 -11.962462 -4.007438 20.521840 -0.340405 -0.003075 0.516501 0.000000 -0.000000 -0.000000 
1.406594 76.994598 2.184351 11.865721 -19.833252 0.033536 2.355468 -0.534159 1.570050 7.612065 -1.183099 1.141696 7.619609 -1.057656 1.215046 -6.077396 3.180203 -1.712892 -22.116004 14.400542 -1.219269 -0.000000 -0.000000 0.000000 0.581444 4.578254 -10.717871 -5.762617 -20.516956 -54.412501 0.000464 -84.322449 0.000515 21.366445 1.673246 28.022784 -11.214694 -7.851936 -13.475844 0.126569 2.748774 -20.406563 1.630029 4.971277 -40.072132 -0.000000 0.000001 -0.000000 0.626556 5.419145 2.939357 4.330091 -0.661770 -3.639587 7.567951 41.114802 -0.574124 0.000001 0.000000 -0.000001 1.825650 4.111636 11.698284 -17.798308 17.655727 64.673723 0.002418 87.315390 -0.002466 27.395925 7.885516 1.839540 -7.743931 22.753127 -16.040356 6.934119 -44.978821 -9.137366 -12.903914 21.733609 7.991439 -0.000001 -0.000000 0.000002 0.371977 -3.723764 -20.941329 1.864492 -5.469513 44.606234 -0.103860 -1.103889 8.178442 -0.000000 -0.000000 0.000001 -44.890838 6.497270 27.967000 49.756108 6.782141 0.859166 -12.070859 3.748856 -20.357510 -1.194084 0.000003 -0.000003 -0.000000 0.000000 -0.000000 -35.178674 -10.380551 -20.999437 42.354819 -6.174200 -0.612684 -12.002409 -4.021798 20.559237 -0.308291 -0.002516 0.467917 0.000000 0.000001 0.000000 
1.402328 76.976326 2.185165 11.838959 -19.823909 -0.024628 2.366290 -0.522234 1.601708 7.638543 -1.158264 1.142941 7.646315 -1.032046 1.211918 -6.089880 3.201551 -1.746357 -22.038551 14.471299 -1.255404 -0.000000 -0.000000 0.000000 0.579826 4.730531 -10.927516 -5.952128 -20.667777 -54.263715 0.000457 -84.348226 0.000510 21.368066 1.802500 27.758734 -11.214697 -7.851937 -13.475846 0.126573 2.748772 -20.406563 1.630028 4.971280 -40.072129 -0.000001 0.000003 -0.000001 0.626554 5.419146 2.939359 4.330095 -0.661769 -3.639586 7.567952 41.114798 -0.574122 -0.000001 -0.000001 0.000001 1.821812 4.113748 11.673318 -17.820339 17.699231 64.665526 0.000162 87.344459 -0.000244 27.318870 7.876997 1.847152 -7.743929 22.753127 -16.040354 6.934121 -44.978821 -9.137368 -12.903919 21.733612 7.991442 -0.000001 -0.000001 -0.000001 0.371979 -3.723765 -20.941331 1.864487 -5.469510 44.606237 -0.103857 -1.103892 8.178441 0.000000 -0.000000 -0.000000 -44.931143 6.441118 27.970875 49.831762 6.750083 0.924953 -12.070035 3.742837 -20.308220 -1.230822 -0.000009 0.000006 -0.000000 -0.000001 -0.000000 -35.162702 -10.406702 -20.975221 42.401695 -6.153478 -0.592825 -11.998470 -4.018821 20.549049 -0.340537 -0.003073 0.516732 0.000000 -0.000001 -0.000000 
1.375591 76.968628 2.172401 11.805338 -19.799590 -0.088001 2.373646 -0.516104 1.647028 7.658869 -1.142799 1.161954 7.666926 -1.015084 1.226566 -6.091509 3.225990 -1.802502 -21.953669 14.529884 -1.287619 -0.000000 0.000000 0.000000 0.577676 4.949005 -11.230025 -6.132536 -20.898987 -54.033333 0.000740 -84.392943 0.000808 21.349037 1.961206 27.484307 -11.214699 -7.851935 -13.475845 0.126571 2.748771 -20.406558 1.630031 4.971275 -40.072126 -0.000001 0.000002 -0.000000 0.626553 5.419146 2.939357 4.330100 -0.661768 -3.639588 7.567952 41.114802 -0.574121 -0.000003 -0.000000 0.000000 1.813769 4.114379 11.620813 -17.827559 17.781909 64.653608 0.005651 87.344807 -0.005676 27.200122 7.872537 1.831387 -7.743929 22.753129 -16.040356 6.934121 -44.978821 -9.137372 -12.903920 21.733611 7.991438 -0.000000 -0.000000 -0.000001 0.371977 -3.723764 -20.941326 1.864488 -5.469510 44.606241 -0.103859 -1.103888 8.178445 -0.000005 -0.000003 0.000001 -44.969894 6.413551 28.006998 49.850279 6.658262 0.975564 -12.035335 3.727332 -20.237278 -1.264767 -0.000002 0.000002 -0.000000 -0.000000 0.000000 -35.141176 -10.432050 -20.924066 42.473255 -6.129214 -0.569238 -11.984685 -4.009569 20.513425 -0.424768 -0.004402 0.594993 -0.000000 -0.000000 0.000000 
1.322178 76.968330 2.150940 11.777679 -19.750689 -0.141303 2.383424 -0.509734 1.700648 7.676631 -1.125852 1.188014 7.684992 -0.996735 1.247346 -6.087621 3.247438 -1.868532 -21.876684 14.561811 -1.317302 0.000000 -0.000000 -0.000000 0.575741 5.176340 -11.545367 -6.284729 -21.182635 -53.782402 0.000968 -84.444941 0.001032 21.332803 2.107251 27.253022 -11.214696 -7.851939 -13.475848 0.126572 2.748772 -20.406561 1.630026 4.971276 -40.072126 -0.000000 0.000003 -0.000000 0.626553 5.419144 2.939358 4.330095 -0.661770 -3.639588 7.567951 41.114802 -0.574120 -0.000001 -0.000001 0.000000 1.803892 4.116949 11.555737 -17.802512 17.853032 64.623309 0.001330 87.389163 -0.001343 27.035707 7.851742 1.792575 -7.743931 22.753129 -16.040353 6.934122 -44.978824 -9.137369 -12.903917 21.733614 7.991441 0.000000 0.000000 0.000002 0.371974 -3.723765 -20.941329 1.864485 -5.469511 44.606241 -0.103858 -1.103893 8.178442 -0.000004 0.000002 -0.000003 -45.004233 6.399280 28.051906 49.809090 6.537489 1.013457 -11.962322 3.704166 -20.156542 -1.292371 -0.000007 -0.000002 -0.000000 -0.000001 0.000000 -35.112169 -10.441477 -20.847547 42.565387 -6.150487 -0.559443 -11.991082 -4.006708 20.491216 -0.584009 -0.006049 0.591754 -0.000000 0.000000 0.000000 
1.247723 76.979286 2.122606 11.759039 -19.677454 -0.179090 2.399532 -0.500067 1.757757 7.695473 -1.103351 1.212953 7.704165 -0.973383 1.265969 -6.085643 3.263979 -1.934675 -21.823636 14.569842 -1.345768 0.000000 0.000000 0.000000 0.574284 5.351480 -11.786194 -6.395618 -21.456527 -53.594176 0.001322 -84.486831 0.001363 21.344705 2.197532 27.098484 -11.214699 -7.851938 -13.475845 0.126571 2.748772 -20.406558 1.630033 4.971278 -40.072129 0.000001 -0.000003 0.000000 0.626551 5.419143 2.939359 4.330099 -0.661769 -3.639588 7.567956 41.114802 -0.574124 -0.000000 -0.000001 0.000001 1.794245 4.124268 11.490380 -17.742892 17.882736 64.569767 0.004918 87.512618 -0.004927 26.826611 7.805682 1.741664 -7.743927 22.753131 -16.040353 6.934120 -44.978821 -9.137370 -12.903913 21.733614 7.991437 -0.000001 -0.000000 0.000002 0.371977 -3.723765 -20.941329 1.864488 -5.469508 44.606241 -0.103857 -1.103889 8.178443 -0.000002 -0.000003 0.000004 -45.019382 6.390155 28.087299 49.696825 6.411307 1.044309 -11.853833 3.678157 -20.090527 -1.306121 -0.000002 -0.000000 0.000000 0.000000 -0.000000 -35.067513 -10.440534 -20.750482 42.657824 -6.227596 -0.572586 -12.045746 -4.018366 20.496974 -0.653452 -0.006590 0.576407 0.000000 -0.000002 0.000000 
